<?xml version="1.0" encoding="UTF-8" standalone="no" ?>
<!DOCTYPE svg PUBLIC "-//W3C//DTD SVG 1.1//EN" "http://www.w3.org/Graphics/SVG/1.1/DTD/svg11.dtd">
<svg xmlns="http://www.w3.org/2000/svg" xmlns:xlink="http://www.w3.org/1999/xlink" version="1.1" width="1080" height="1080" viewBox="0 0 1080 1080" xml:space="preserve">
<desc>Created with Fabric.js 5.2.4</desc>
<defs>
</defs>
<g transform="matrix(1 0 0 1 540 540)" id="606632be-ee04-4ccf-9428-5f31a1b0415b"  >
<rect style="stroke: none; stroke-width: 1; stroke-dasharray: none; stroke-linecap: butt; stroke-dashoffset: 0; stroke-linejoin: miter; stroke-miterlimit: 4; fill: rgb(255,255,255); fill-rule: nonzero; opacity: 1; visibility: hidden;" vector-effect="non-scaling-stroke"  x="-540" y="-540" rx="0" ry="0" width="1080" height="1080" />
</g>
<g transform="matrix(1 0 0 1 540 540)" id="a9201244-b0a6-4ca7-8f2c-569290c50f58"  >
</g>
<g transform="matrix(33.75 0 0 33.75 540 540)"  >
<path style="stroke: none; stroke-width: 1; stroke-dasharray: none; stroke-linecap: butt; stroke-dashoffset: 0; stroke-linejoin: miter; stroke-miterlimit: 4; fill: rgb(255,255,255); fill-rule: nonzero; opacity: 1;"  transform=" translate(-15.98, -15.55)" d="M 31.952 14.751 C 30.51652877445286 13.264764986581937 29.06342593884379 11.795661018578027 27.592999999999993 10.344000000000017 C 23.932 6.734 20.16 3.182 16.171 0 C 17.805 0.017 19.381 0.28 20.863 0.751 C 24.35 3.8649999999999998 27.709 7.149 31.026 10.488 C 31.519 11.834 31.837 13.264 31.951999999999998 14.75 z M 30.564 22.634 C 28.068 20.037 25.512999999999998 17.514 22.826999999999998 15.163 C 19.121 11.917 12.133999999999999 5.353 7.0909999999999975 7.745 C 2.538999999999998 9.903 2.373999999999998 18.288 2.1309999999999976 23.983 C 0.7307422074790839 21.555809452501737 -0.004330018117333356 18.802134381203658 8.881784197001252e-16 16.000000000000007 C 0 9.799 3.528 4.421 8.686 1.766 C 10.506 2.359 12.279 3.441 13.724 4.353 C 20.293 8.492999999999999 26.014 14.063 31.516000000000002 19.923000000000002 C 31.279000000000003 20.863000000000003 30.959000000000003 21.769000000000002 30.564 22.634 z M 26.059 28.444 C 25.726521082712022 28.165789186311038 25.39083191418865 27.891437462681704 25.052000000000003 27.621 C 22.478 25.567 18.965 22.816 15.658 23.576999999999998 C 12.636 24.272 11.393999999999998 27.843999999999998 10.687999999999999 31.096999999999998 C 9.391717481695894 30.640841666151974 8.159842435381039 30.019022065692905 7.023 29.246999999999993 C 7.3889999999999985 26.004999999999995 7.9129999999999985 22.571999999999996 9.427999999999999 19.882999999999996 C 11.742999999999999 15.775999999999996 15.715 16.810999999999996 19.040999999999997 18.750999999999994 C 22.400999999999996 20.710999999999995 25.458 23.322999999999993 28.354 26.167999999999992 C 27.667247945825146 27.001395659732967 26.898374580743223 27.76356860333269 26.058999999999997 28.44299999999999 z" stroke-linecap="round" />
</g>
</svg>