<svg width="250" height="229" viewBox="0 0 250 229" fill="none" xmlns="http://www.w3.org/2000/svg">
<path fill-rule="evenodd" clip-rule="evenodd" d="M157.5 2.02145C164.077 -1.73645 172.454 0.548353 176.212 7.12444L214.179 73.5687H221.466C225.544 73.5012 229.589 74.3446 233.301 76.0378C237.044 77.7453 240.355 80.2732 242.99 83.434C245.624 86.5951 247.514 90.3082 248.518 94.2983C249.52 98.2807 249.615 102.437 248.798 106.461L248.792 106.485L228.685 207.019L228.678 207.052C227.396 213.342 223.949 218.981 218.937 222.991C213.953 226.979 207.734 229.102 201.352 228.996H48.6483C42.2671 229.102 36.0478 226.979 31.0627 222.991C26.051 218.981 22.604 213.342 21.3218 207.052L21.3148 207.019L1.20815 106.485L1.20398 106.464C0.384704 102.439 0.479844 98.2817 1.48251 94.2983C2.48687 90.3082 4.37607 86.5951 7.01019 83.434C9.64432 80.2732 12.9558 77.7453 16.6995 76.0378C20.4122 74.3446 24.4556 73.5012 28.5347 73.5687H35.8201L73.7882 7.12444C77.5461 0.548353 85.9236 -1.73645 92.4998 2.02145C99.0761 5.77917 101.361 14.1566 97.603 20.7329L67.4111 73.5687H182.589L152.397 20.7329C148.64 14.1566 150.924 5.77917 157.5 2.02145Z" fill="white"/>
</svg>
